<svg width="451" height="463" viewBox="0 0 451 463" fill="none" xmlns="http://www.w3.org/2000/svg">
<rect x="0.302246" y="0.0639648" width="450" height="462.79" rx="17.9754" fill="url(#paint0_radial_21_887)" fill-opacity="0.5"/>
<rect x="0.901427" y="0.663146" width="448.802" height="461.592" rx="17.3763" stroke="url(#paint1_linear_21_887)" stroke-opacity="0.15" stroke-width="1.19836"/>
<circle cx="225.302" cy="231.459" r="165.583" stroke="url(#paint2_linear_21_887)" stroke-opacity="0.2" stroke-width="1.19836"/>
<circle cx="225.302" cy="234.427" r="102.133" stroke="url(#paint3_linear_21_887)" stroke-opacity="0.2" stroke-width="1.19836"/>
<path d="M98.4636 304.323H129.127C139.054 304.323 147.102 296.275 147.102 286.348V252.355C147.102 242.427 155.15 234.379 165.077 234.379H307.202C317.129 234.379 325.177 226.331 325.177 216.404V199.294C325.177 189.367 333.225 181.319 343.153 181.319H357.737" stroke="#E67EBE" stroke-width="1.19836"/>
<g filter="url(#filter0_b_21_887)">
<rect x="352.14" y="152.93" width="47.9345" height="47.9345" rx="23.9672" fill="white" fill-opacity="0.2"/>
<rect x="352.62" y="153.41" width="46.9758" height="46.9758" rx="23.4879" stroke="url(#paint4_linear_21_887)" stroke-opacity="0.2" stroke-width="0.95869"/>
</g>
<path d="M363.477 164.267L387.582 188.371H363.477V164.267Z" fill="url(#paint5_linear_21_887)"/>
<circle cx="378.542" cy="173.306" r="8.85829" stroke="url(#paint6_linear_21_887)" stroke-width="0.361563"/>
<g filter="url(#filter1_b_21_887)">
<rect x="50.5295" y="280.355" width="47.9345" height="47.9345" rx="23.9672" fill="white" fill-opacity="0.2"/>
<rect x="51.0089" y="280.834" width="46.9758" height="46.9758" rx="23.4879" stroke="url(#paint7_linear_21_887)" stroke-opacity="0.2" stroke-width="0.95869"/>
</g>
<path d="M84.8455 292.558C83.4607 291.173 81.0522 291.015 78.222 291.959C75.4016 292.899 72.2117 294.92 69.328 297.803C66.4444 300.687 64.4238 303.877 63.4836 306.697C62.5402 309.527 62.6979 311.936 64.0827 313.321C65.4675 314.705 67.876 314.863 70.7062 313.92C73.5266 312.98 76.7165 310.959 79.6002 308.075C82.4838 305.192 84.5044 302.002 85.4445 299.181C86.388 296.351 86.2303 293.943 84.8455 292.558Z" fill="url(#paint8_linear_21_887)" stroke="url(#paint9_linear_21_887)" stroke-width="0.309085"/>
<path d="M87.2383 295.325C85.8536 293.94 83.445 293.782 80.6148 294.726C77.7944 295.666 74.6045 297.686 71.7209 300.57C68.8372 303.454 66.8166 306.644 65.8765 309.464C64.9331 312.294 65.0907 314.703 66.4755 316.088C67.8603 317.472 70.2688 317.63 73.099 316.687C75.9195 315.746 79.1093 313.726 81.993 310.842C84.8766 307.959 86.8972 304.769 87.8374 301.948C88.7808 299.118 88.6231 296.709 87.2383 295.325Z" stroke="url(#paint10_linear_21_887)" stroke-width="0.309085"/>
<g filter="url(#filter2_b_21_887)">
<rect x="189.302" y="198.427" width="72" height="72" rx="36" fill="white" fill-opacity="0.2"/>
<rect x="190.022" y="199.147" width="70.56" height="70.56" rx="35.28" stroke="url(#paint11_linear_21_887)" stroke-opacity="0.2" stroke-width="1.44"/>
</g>
<path fill-rule="evenodd" clip-rule="evenodd" d="M234.513 215.201C233.736 215.201 233.016 215.61 232.618 216.277L229.909 220.818C229.031 222.289 230.091 224.155 231.803 224.155L241.074 224.155C241.891 224.155 242.641 223.704 243.024 222.982L245.432 218.441C246.212 216.971 245.146 215.201 243.483 215.201L234.513 215.201ZM215.891 223.367C215.114 223.367 214.394 223.775 213.996 224.443L211.286 228.984C210.409 230.455 211.468 232.321 213.181 232.321L222.452 232.321C223.269 232.321 224.019 231.87 224.401 231.148L226.81 226.607C227.589 225.137 226.524 223.367 224.861 223.367L215.891 223.367ZM207.937 235.897C208.335 235.23 209.054 234.821 209.831 234.821L218.801 234.821C220.465 234.821 221.53 236.592 220.75 238.061L218.342 242.603C217.959 243.324 217.209 243.776 216.393 243.776L207.122 243.776C205.409 243.776 204.349 241.909 205.227 240.439L207.937 235.897ZM221.701 244.699C220.924 244.699 220.205 245.108 219.807 245.775L217.097 250.316C216.22 251.787 217.279 253.653 218.992 253.653L228.263 253.653C229.079 253.653 229.829 253.202 230.212 252.481L232.621 247.939C233.4 246.469 232.335 244.699 230.671 244.699L221.701 244.699Z" fill="url(#paint12_linear_21_887)"/>
<defs>
<filter id="filter0_b_21_887" x="332.967" y="133.756" width="86.282" height="86.282" filterUnits="userSpaceOnUse" color-interpolation-filters="sRGB">
<feFlood flood-opacity="0" result="BackgroundImageFix"/>
<feGaussianBlur in="BackgroundImageFix" stdDeviation="9.5869"/>
<feComposite in2="SourceAlpha" operator="in" result="effect1_backgroundBlur_21_887"/>
<feBlend mode="normal" in="SourceGraphic" in2="effect1_backgroundBlur_21_887" result="shape"/>
</filter>
<filter id="filter1_b_21_887" x="31.3557" y="261.181" width="86.2822" height="86.2822" filterUnits="userSpaceOnUse" color-interpolation-filters="sRGB">
<feFlood flood-opacity="0" result="BackgroundImageFix"/>
<feGaussianBlur in="BackgroundImageFix" stdDeviation="9.5869"/>
<feComposite in2="SourceAlpha" operator="in" result="effect1_backgroundBlur_21_887"/>
<feBlend mode="normal" in="SourceGraphic" in2="effect1_backgroundBlur_21_887" result="shape"/>
</filter>
<filter id="filter2_b_21_887" x="160.502" y="169.627" width="129.6" height="129.6" filterUnits="userSpaceOnUse" color-interpolation-filters="sRGB">
<feFlood flood-opacity="0" result="BackgroundImageFix"/>
<feGaussianBlur in="BackgroundImageFix" stdDeviation="14.4"/>
<feComposite in2="SourceAlpha" operator="in" result="effect1_backgroundBlur_21_887"/>
<feBlend mode="normal" in="SourceGraphic" in2="effect1_backgroundBlur_21_887" result="shape"/>
</filter>
<radialGradient id="paint0_radial_21_887" cx="0" cy="0" r="1" gradientUnits="userSpaceOnUse" gradientTransform="translate(225.302 231.459) rotate(90) scale(199.497 193.984)">
<stop stop-color="#3A47E1"/>
<stop offset="1" stop-color="#020B13"/>
</radialGradient>
<linearGradient id="paint1_linear_21_887" x1="225.302" y1="0.0639648" x2="225.302" y2="462.854" gradientUnits="userSpaceOnUse">
<stop stop-color="white"/>
<stop offset="1" stop-color="#999999"/>
</linearGradient>
<linearGradient id="paint2_linear_21_887" x1="225.302" y1="65.2761" x2="225.302" y2="397.641" gradientUnits="userSpaceOnUse">
<stop stop-color="#3A47E1"/>
<stop offset="1" stop-color="#999999" stop-opacity="0"/>
</linearGradient>
<linearGradient id="paint3_linear_21_887" x1="225.302" y1="131.695" x2="225.302" y2="337.159" gradientUnits="userSpaceOnUse">
<stop stop-color="#3A47E1"/>
<stop offset="1" stop-color="#999999" stop-opacity="0"/>
</linearGradient>
<linearGradient id="paint4_linear_21_887" x1="376.108" y1="152.93" x2="376.108" y2="200.865" gradientUnits="userSpaceOnUse">
<stop stop-color="#3A47E1"/>
<stop offset="1" stop-color="white" stop-opacity="0"/>
</linearGradient>
<linearGradient id="paint5_linear_21_887" x1="375.53" y1="164.267" x2="375.53" y2="193.4" gradientUnits="userSpaceOnUse">
<stop stop-color="white"/>
<stop offset="1" stop-color="#999999"/>
</linearGradient>
<linearGradient id="paint6_linear_21_887" x1="378.542" y1="164.267" x2="378.542" y2="182.345" gradientUnits="userSpaceOnUse">
<stop stop-color="white"/>
<stop offset="1" stop-color="#999999" stop-opacity="0"/>
</linearGradient>
<linearGradient id="paint7_linear_21_887" x1="74.4968" y1="280.355" x2="74.4968" y2="328.289" gradientUnits="userSpaceOnUse">
<stop stop-color="#3A47E1"/>
<stop offset="1" stop-color="white" stop-opacity="0"/>
</linearGradient>
<linearGradient id="paint8_linear_21_887" x1="84.4707" y1="287.601" x2="93.0761" y2="301.122" gradientUnits="userSpaceOnUse">
<stop stop-color="white"/>
<stop offset="0.927083" stop-color="#535353"/>
</linearGradient>
<linearGradient id="paint9_linear_21_887" x1="79.7094" y1="308.185" x2="69.2188" y2="297.694" gradientUnits="userSpaceOnUse">
<stop stop-color="white"/>
<stop offset="1" stop-color="white" stop-opacity="0"/>
</linearGradient>
<linearGradient id="paint10_linear_21_887" x1="70.6934" y1="296.452" x2="86.1477" y2="316.233" gradientUnits="userSpaceOnUse">
<stop stop-color="white"/>
<stop offset="1" stop-color="white" stop-opacity="0"/>
</linearGradient>
<linearGradient id="paint11_linear_21_887" x1="225.302" y1="198.427" x2="225.302" y2="270.427" gradientUnits="userSpaceOnUse">
<stop stop-color="#3A47E1"/>
<stop offset="1" stop-color="white" stop-opacity="0"/>
</linearGradient>
<linearGradient id="paint12_linear_21_887" x1="225.302" y1="215.201" x2="225.302" y2="253.653" gradientUnits="userSpaceOnUse">
<stop stop-color="white"/>
<stop offset="1" stop-color="#999999"/>
</linearGradient>
</defs>
</svg>
