<svg width="451" height="463" viewBox="0 0 451 463" fill="none" xmlns="http://www.w3.org/2000/svg">
<g clip-path="url(#clip0_26_4275)">
<rect x="0.302246" y="0.103027" width="450" height="462.79" rx="17.9754" fill="url(#paint0_radial_26_4275)" fill-opacity="0.5"/>
<rect x="-39.9824" y="56.1569" width="169.099" height="98.662" rx="8.83333" fill="url(#paint1_linear_26_4275)"/>
<rect x="-39.5408" y="56.5985" width="168.216" height="97.7786" rx="8.39167" stroke="url(#paint2_linear_26_4275)" stroke-opacity="0.5" stroke-width="0.883333"/>
<rect x="-39.9824" y="174.656" width="169.099" height="98.662" rx="8.83333" fill="#071A2A"/>
<rect x="-39.5408" y="175.097" width="168.216" height="97.7786" rx="8.39167" stroke="#373737" stroke-opacity="0.5" stroke-width="0.883333"/>
<rect x="316.427" y="174.656" width="169.099" height="98.662" rx="8.83333" fill="#071A2A"/>
<rect x="316.869" y="175.097" width="168.216" height="97.7786" rx="8.39167" stroke="#373737" stroke-opacity="0.5" stroke-width="0.883333"/>
<rect x="114.817" y="216.397" width="214.763" height="16.0896" rx="8.04478" stroke="url(#paint3_linear_26_4275)"/>
<rect x="138.986" y="174.656" width="169.099" height="98.662" rx="8.83333" fill="#071A2A"/>
<rect x="139.427" y="175.097" width="168.216" height="97.7786" rx="8.39167" stroke="#373737" stroke-opacity="0.5" stroke-width="0.883333"/>
<rect x="147.143" y="182.082" width="149.253" height="83.8097" rx="8.83333" fill="url(#paint4_linear_26_4275)"/>
<rect x="147.584" y="182.524" width="148.37" height="82.9264" rx="8.39167" stroke="url(#paint5_linear_26_4275)" stroke-opacity="0.5" stroke-width="0.883333"/>
<path d="M218.221 240.701V237.521C216.478 237.38 215.053 237.003 213.946 236.391C212.863 235.778 212.015 235.06 211.402 234.235C210.79 233.411 210.354 232.61 210.095 231.833C209.859 231.032 209.706 230.372 209.635 229.854C209.588 229.312 209.565 229.041 209.565 229.041H213.628C213.628 229.041 213.652 229.265 213.699 229.713C213.769 230.137 213.934 230.655 214.193 231.267C214.476 231.88 214.935 232.457 215.571 232.999C216.207 233.517 217.091 233.87 218.221 234.059V225.473L218.045 225.437C216.608 225.108 215.301 224.672 214.123 224.13C212.969 223.588 212.038 222.846 211.331 221.904C210.648 220.938 210.307 219.702 210.307 218.194C210.307 216.71 210.672 215.438 211.402 214.378C212.132 213.318 213.098 212.482 214.299 211.869C215.501 211.257 216.808 210.88 218.221 210.739V207.629H221.013V210.809C222.52 210.998 223.757 211.375 224.723 211.94C225.689 212.505 226.442 213.153 226.984 213.883C227.549 214.614 227.962 215.332 228.221 216.039C228.48 216.722 228.645 217.299 228.715 217.77C228.786 218.218 228.821 218.441 228.821 218.441H224.793C224.793 218.441 224.758 218.265 224.687 217.911C224.64 217.558 224.499 217.134 224.263 216.639C224.028 216.145 223.651 215.674 223.133 215.226C222.615 214.778 221.908 214.437 221.013 214.201V222.293L221.331 222.363C222.226 222.575 223.133 222.834 224.051 223.141C224.97 223.447 225.806 223.871 226.56 224.413C227.337 224.931 227.962 225.626 228.433 226.497C228.904 227.345 229.139 228.441 229.139 229.783C229.139 231.173 228.786 232.422 228.079 233.529C227.396 234.636 226.442 235.543 225.217 236.249C223.993 236.932 222.591 237.356 221.013 237.521V240.701H218.221ZM214.264 218.088C214.264 219.007 214.582 219.749 215.218 220.314C215.854 220.856 216.855 221.303 218.221 221.657V214.095C216.997 214.284 216.031 214.755 215.324 215.509C214.617 216.239 214.264 217.099 214.264 218.088ZM225.147 229.819C225.147 228.735 224.782 227.922 224.051 227.381C223.321 226.839 222.308 226.403 221.013 226.073V234.059C222.214 233.847 223.203 233.364 223.981 232.61C224.758 231.856 225.147 230.926 225.147 229.819Z" fill="white"/>
<rect x="-39.9824" y="293.155" width="169.099" height="98.662" rx="8.83333" fill="url(#paint6_linear_26_4275)"/>
<rect x="-39.5408" y="293.596" width="168.216" height="97.7786" rx="8.39167" stroke="url(#paint7_linear_26_4275)" stroke-opacity="0.5" stroke-width="0.883333"/>
<rect x="316.427" y="56.1569" width="169.099" height="98.662" rx="8.83333" fill="url(#paint8_linear_26_4275)"/>
<rect x="316.869" y="56.5985" width="168.216" height="97.7786" rx="8.39167" stroke="url(#paint9_linear_26_4275)" stroke-opacity="0.5" stroke-width="0.883333"/>
<rect x="316.427" y="293.155" width="169.099" height="98.662" rx="8.83333" fill="url(#paint10_linear_26_4275)"/>
<rect x="316.869" y="293.597" width="168.216" height="97.7786" rx="8.39167" stroke="url(#paint11_linear_26_4275)" stroke-opacity="0.5" stroke-width="0.883333"/>
<path d="M268.932 194.574H286.144" stroke="white" stroke-width="5.3" stroke-linecap="round"/>
<path d="M159.795 254.31H177.007" stroke="white" stroke-width="5.3" stroke-linecap="round"/>
<path d="M112.509 220.989C115.481 222.905 115.432 227.269 112.416 229.116L50.1801 267.256C48.6057 268.221 46.6174 268.197 45.0666 267.194L-13.9415 229.057C-16.827 227.192 -16.876 222.988 -14.0348 221.056L44.976 180.935C46.5694 179.852 48.6561 179.826 50.2756 180.87L112.509 220.989Z" stroke="url(#paint12_linear_26_4275)"/>
<path d="M459.548 220.989C462.52 222.905 462.47 227.269 459.455 229.116L397.219 267.256C395.644 268.221 393.656 268.197 392.105 267.194L333.097 229.057C330.212 227.192 330.163 222.988 333.004 221.056L392.015 180.935C393.608 179.852 395.695 179.826 397.314 180.87L459.548 220.989Z" stroke="url(#paint13_linear_26_4275)"/>
<g filter="url(#filter0_d_26_4275)">
<circle cx="114.317" cy="225.108" r="3.245" fill="#E67EBE"/>
<circle cx="114.317" cy="225.108" r="3.745" stroke="#5B6772"/>
</g>
<g filter="url(#filter1_d_26_4275)">
<circle cx="330.08" cy="225.108" r="3.245" fill="#E67EBE"/>
<circle cx="330.08" cy="225.108" r="3.745" stroke="#5B6772"/>
</g>
</g>
<rect x="0.802246" y="0.603027" width="449" height="461.79" rx="14.5" stroke="url(#paint14_linear_26_4275)" stroke-opacity="0.15"/>
<defs>
<filter id="filter0_d_26_4275" x="107.072" y="217.863" width="14.49" height="14.49" filterUnits="userSpaceOnUse" color-interpolation-filters="sRGB">
<feFlood flood-opacity="0" result="BackgroundImageFix"/>
<feColorMatrix in="SourceAlpha" type="matrix" values="0 0 0 0 0 0 0 0 0 0 0 0 0 0 0 0 0 0 127 0" result="hardAlpha"/>
<feOffset/>
<feGaussianBlur stdDeviation="1.5"/>
<feComposite in2="hardAlpha" operator="out"/>
<feColorMatrix type="matrix" values="0 0 0 0 0.901961 0 0 0 0 0.494118 0 0 0 0 0.745098 0 0 0 1 0"/>
<feBlend mode="normal" in2="BackgroundImageFix" result="effect1_dropShadow_26_4275"/>
<feBlend mode="normal" in="SourceGraphic" in2="effect1_dropShadow_26_4275" result="shape"/>
</filter>
<filter id="filter1_d_26_4275" x="322.835" y="217.863" width="14.49" height="14.49" filterUnits="userSpaceOnUse" color-interpolation-filters="sRGB">
<feFlood flood-opacity="0" result="BackgroundImageFix"/>
<feColorMatrix in="SourceAlpha" type="matrix" values="0 0 0 0 0 0 0 0 0 0 0 0 0 0 0 0 0 0 127 0" result="hardAlpha"/>
<feOffset/>
<feGaussianBlur stdDeviation="1.5"/>
<feComposite in2="hardAlpha" operator="out"/>
<feColorMatrix type="matrix" values="0 0 0 0 0.901961 0 0 0 0 0.494118 0 0 0 0 0.745098 0 0 0 1 0"/>
<feBlend mode="normal" in2="BackgroundImageFix" result="effect1_dropShadow_26_4275"/>
<feBlend mode="normal" in="SourceGraphic" in2="effect1_dropShadow_26_4275" result="shape"/>
</filter>
<radialGradient id="paint0_radial_26_4275" cx="0" cy="0" r="1" gradientUnits="userSpaceOnUse" gradientTransform="translate(225.302 231.498) rotate(90) scale(199.497 193.984)">
<stop stop-color="#3A47E1"/>
<stop offset="1" stop-color="#020B13"/>
</radialGradient>
<linearGradient id="paint1_linear_26_4275" x1="44.5671" y1="56.1569" x2="44.5671" y2="154.819" gradientUnits="userSpaceOnUse">
<stop stop-color="#030C14"/>
<stop offset="1" stop-color="#071A2A"/>
</linearGradient>
<linearGradient id="paint2_linear_26_4275" x1="44.5671" y1="56.1569" x2="44.5671" y2="154.819" gradientUnits="userSpaceOnUse">
<stop stop-color="#373737" stop-opacity="0"/>
<stop offset="1" stop-color="#323232"/>
</linearGradient>
<linearGradient id="paint3_linear_26_4275" x1="225.675" y1="213.608" x2="224.203" y2="244.559" gradientUnits="userSpaceOnUse">
<stop stop-color="white" stop-opacity="0.6"/>
<stop offset="1" stop-color="white" stop-opacity="0"/>
</linearGradient>
<linearGradient id="paint4_linear_26_4275" x1="221.769" y1="182.082" x2="221.769" y2="265.892" gradientUnits="userSpaceOnUse">
<stop stop-color="#4459CD"/>
<stop offset="1" stop-color="#222D67"/>
</linearGradient>
<linearGradient id="paint5_linear_26_4275" x1="221.769" y1="182.082" x2="221.769" y2="265.892" gradientUnits="userSpaceOnUse">
<stop stop-color="#8A98E4"/>
<stop offset="1" stop-color="#4C547E"/>
</linearGradient>
<linearGradient id="paint6_linear_26_4275" x1="44.5671" y1="293.155" x2="44.5671" y2="391.817" gradientUnits="userSpaceOnUse">
<stop stop-color="#071A2A"/>
<stop offset="1" stop-color="#030C14"/>
</linearGradient>
<linearGradient id="paint7_linear_26_4275" x1="44.5671" y1="293.155" x2="44.5671" y2="391.817" gradientUnits="userSpaceOnUse">
<stop stop-color="#071A2A"/>
<stop offset="1" stop-color="#373737" stop-opacity="0"/>
</linearGradient>
<linearGradient id="paint8_linear_26_4275" x1="400.977" y1="56.1569" x2="400.977" y2="154.819" gradientUnits="userSpaceOnUse">
<stop stop-color="#030C14"/>
<stop offset="1" stop-color="#071A2A"/>
</linearGradient>
<linearGradient id="paint9_linear_26_4275" x1="400.977" y1="56.1569" x2="400.977" y2="154.819" gradientUnits="userSpaceOnUse">
<stop stop-color="#373737" stop-opacity="0"/>
<stop offset="1" stop-color="#4F4F4F"/>
</linearGradient>
<linearGradient id="paint10_linear_26_4275" x1="400.977" y1="293.155" x2="400.977" y2="391.817" gradientUnits="userSpaceOnUse">
<stop stop-color="#071A2A"/>
<stop offset="1" stop-color="#030C14"/>
</linearGradient>
<linearGradient id="paint11_linear_26_4275" x1="400.977" y1="293.155" x2="400.977" y2="391.817" gradientUnits="userSpaceOnUse">
<stop stop-color="#071A2A"/>
<stop offset="1" stop-color="#373737" stop-opacity="0"/>
</linearGradient>
<linearGradient id="paint12_linear_26_4275" x1="92.7299" y1="172.651" x2="92.7299" y2="277.587" gradientUnits="userSpaceOnUse">
<stop stop-color="white" stop-opacity="0.6"/>
<stop offset="1" stop-color="white" stop-opacity="0"/>
</linearGradient>
<linearGradient id="paint13_linear_26_4275" x1="439.769" y1="172.651" x2="439.769" y2="277.587" gradientUnits="userSpaceOnUse">
<stop stop-color="white" stop-opacity="0.6"/>
<stop offset="1" stop-color="white" stop-opacity="0"/>
</linearGradient>
<linearGradient id="paint14_linear_26_4275" x1="225.302" y1="0.103027" x2="225.302" y2="462.893" gradientUnits="userSpaceOnUse">
<stop stop-color="white"/>
<stop offset="1" stop-color="#999999"/>
</linearGradient>
<clipPath id="clip0_26_4275">
<rect x="0.302246" y="0.103027" width="450" height="462.79" rx="15" fill="white"/>
</clipPath>
</defs>
</svg>
