<svg width="767" height="810" viewBox="0 0 767 810" fill="none" xmlns="http://www.w3.org/2000/svg">
<path d="M1.72605 414.469L237.131 277.149L367.5 355.371L138.625 492.696L1.72605 414.469Z" fill="#3A47E1" stroke="#31BDFE"/>
<path d="M1.22607 414.183L1.22608 139.525L138.131 217.756V492.413L1.22607 414.183Z" fill="#3A47E1" stroke="#31BDFE"/>
<path d="M237.634 276.285V1.6414L367.972 79.8441V354.487L237.634 276.285Z" fill="#3A47E1" stroke="#31BDFE"/>
<path d="M1.72605 138.659L237.131 1.33925L367.5 79.561L138.625 216.886L1.72605 138.659Z" fill="#3A47E1" stroke="#31BDFE"/>
<path d="M122.668 818.132L358.073 680.812L488.442 759.034L259.567 896.359L122.668 818.132Z" fill="#3A47E1" stroke="#31BDFE"/>
<path d="M122.168 817.846L122.168 543.188L259.073 621.419V896.076L122.168 817.846Z" fill="#3A47E1" stroke="#31BDFE"/>
<path d="M358.576 679.948V405.304L488.914 483.507V758.15L358.576 679.948Z" fill="#3A47E1" stroke="#31BDFE"/>
<path d="M122.668 542.322L358.072 405.002L488.442 483.224L259.566 620.549L122.668 542.322Z" fill="#3A47E1" stroke="#31BDFE"/>
<path d="M766 445.519L530.595 308.2L400.226 386.422L629.101 523.747L766 445.519Z" fill="#3A47E1" stroke="#31BDFE"/>
<path d="M766.5 445.233L766.5 170.576L629.595 248.806V523.464L766.5 445.233Z" fill="#3A47E1" stroke="#31BDFE"/>
<path d="M530.092 307.335V32.6922L399.754 110.895V385.538L530.092 307.335Z" fill="#3A47E1" stroke="#31BDFE"/>
<path d="M766 169.71L530.595 32.39L400.226 110.612L629.101 247.937L766 169.71Z" fill="#3A47E1" stroke="#31BDFE"/>
</svg>
