<svg width="584" height="554" viewBox="0 0 584 554" fill="none" xmlns="http://www.w3.org/2000/svg">
<mask id="path-1-outside-1_35_252" maskUnits="userSpaceOnUse" x="22.9551" y="24.3672" width="561" height="529" fill="black">
<rect fill="white" x="22.9551" y="24.3672" width="561" height="529"/>
<path fill-rule="evenodd" clip-rule="evenodd" d="M429.218 26.3679C418.607 26.3679 408.779 31.9488 403.342 41.0607L366.336 103.086C354.353 123.17 368.824 148.656 392.211 148.655L518.828 148.655C529.981 148.655 540.222 142.495 545.447 132.642L578.343 70.6156C588.986 50.5475 574.439 26.3671 551.723 26.3672L429.218 26.3679ZM174.893 137.889C164.282 137.889 154.454 143.47 149.017 152.582L112.011 214.607C100.028 234.692 114.499 260.177 137.886 260.177L264.503 260.176C275.656 260.176 285.897 254.016 291.122 244.163L324.018 182.137C334.661 162.069 320.114 137.888 297.398 137.888L174.893 137.889ZM66.2635 309.019C71.7 299.907 81.5283 294.326 92.1388 294.326L214.644 294.325C237.36 294.325 251.907 318.505 241.264 338.573L208.368 400.599C203.143 410.452 192.902 416.613 181.749 416.613L55.1325 416.613C31.7451 416.613 17.274 391.128 29.2569 371.044L66.2635 309.019ZM254.249 429.223C243.639 429.223 233.81 434.804 228.374 443.916L191.367 505.942C179.384 526.026 193.855 551.511 217.243 551.511L343.859 551.511C355.012 551.511 365.253 545.35 370.479 535.497L403.374 473.471C414.017 453.403 399.47 429.223 376.754 429.223L254.249 429.223Z"/>
</mask>
<path fill-rule="evenodd" clip-rule="evenodd" d="M429.218 26.3679C418.607 26.3679 408.779 31.9488 403.342 41.0607L366.336 103.086C354.353 123.17 368.824 148.656 392.211 148.655L518.828 148.655C529.981 148.655 540.222 142.495 545.447 132.642L578.343 70.6156C588.986 50.5475 574.439 26.3671 551.723 26.3672L429.218 26.3679ZM174.893 137.889C164.282 137.889 154.454 143.47 149.017 152.582L112.011 214.607C100.028 234.692 114.499 260.177 137.886 260.177L264.503 260.176C275.656 260.176 285.897 254.016 291.122 244.163L324.018 182.137C334.661 162.069 320.114 137.888 297.398 137.888L174.893 137.889ZM66.2635 309.019C71.7 299.907 81.5283 294.326 92.1388 294.326L214.644 294.325C237.36 294.325 251.907 318.505 241.264 338.573L208.368 400.599C203.143 410.452 192.902 416.613 181.749 416.613L55.1325 416.613C31.7451 416.613 17.274 391.128 29.2569 371.044L66.2635 309.019ZM254.249 429.223C243.639 429.223 233.81 434.804 228.374 443.916L191.367 505.942C179.384 526.026 193.855 551.511 217.243 551.511L343.859 551.511C355.012 551.511 365.253 545.35 370.479 535.497L403.374 473.471C414.017 453.403 399.47 429.223 376.754 429.223L254.249 429.223Z" fill="#E9E9E9"/>
<path d="M403.342 41.0607L401.968 40.2409L403.342 41.0607ZM429.218 26.3679V24.7679V26.3679ZM366.336 103.086L364.962 102.266L366.336 103.086ZM392.211 148.655V150.255V148.655ZM518.828 148.655V150.255V148.655ZM545.447 132.642L546.861 133.391V133.391L545.447 132.642ZM578.343 70.6156L576.929 69.866L578.343 70.6156ZM551.723 26.3672L551.723 24.7672L551.723 26.3672ZM149.017 152.582L150.391 153.402V153.402L149.017 152.582ZM174.893 137.889L174.893 139.489L174.893 137.889ZM112.011 214.607L110.637 213.787L112.011 214.607ZM137.886 260.177L137.886 258.577L137.886 260.177ZM264.503 260.176V258.576V260.176ZM291.122 244.163L292.536 244.912L291.122 244.163ZM324.018 182.137L322.604 181.387L324.018 182.137ZM297.398 137.888V136.288V137.888ZM92.1388 294.326L92.1388 292.726L92.1388 294.326ZM66.2635 309.019L67.6375 309.838L66.2635 309.019ZM214.644 294.325V292.725V294.325ZM241.264 338.573L242.677 339.323H242.677L241.264 338.573ZM208.368 400.599L209.782 401.349L208.368 400.599ZM181.749 416.613L181.749 418.213L181.749 416.613ZM55.1325 416.613L55.1325 418.213H55.1325L55.1325 416.613ZM29.2569 371.044L27.8829 370.224H27.8829L29.2569 371.044ZM228.374 443.916L229.748 444.736H229.748L228.374 443.916ZM254.249 429.223V427.623V429.223ZM191.367 505.942L189.993 505.122L191.367 505.942ZM217.243 551.511V549.911V551.511ZM343.859 551.511V549.911V551.511ZM370.479 535.497L369.065 534.747L370.479 535.497ZM403.374 473.471L404.787 474.221L403.374 473.471ZM376.754 429.223V427.623V429.223ZM404.716 41.8805C409.864 33.2524 419.171 27.9679 429.218 27.9679V24.7679C418.044 24.7679 407.694 30.6452 401.968 40.2409L404.716 41.8805ZM367.71 103.906L404.716 41.8805L401.968 40.2409L364.962 102.266L367.71 103.906ZM392.211 147.055C370.066 147.056 356.363 122.924 367.71 103.906L364.962 102.266C352.342 123.417 367.582 150.256 392.211 150.255V147.055ZM518.828 147.055L392.211 147.055V150.255L518.828 150.255V147.055ZM544.034 131.892C539.086 141.222 529.389 147.055 518.828 147.055V150.255C530.573 150.255 541.358 143.767 546.861 133.391L544.034 131.892ZM576.929 69.866L544.034 131.892L546.861 133.391L579.756 71.3653L576.929 69.866ZM551.723 27.9672C573.233 27.9671 587.007 50.8635 576.929 69.866L579.756 71.3653C590.964 50.2315 575.645 24.7671 551.723 24.7672L551.723 27.9672ZM429.218 27.9679L551.723 27.9672L551.723 24.7672L429.218 24.7679V27.9679ZM150.391 153.402C155.539 144.774 164.846 139.489 174.893 139.489L174.893 136.289C163.719 136.289 153.369 142.166 147.643 151.762L150.391 153.402ZM113.385 215.427L150.391 153.402L147.643 151.762L110.637 213.787L113.385 215.427ZM137.886 258.577C115.741 258.577 102.038 234.445 113.385 215.427L110.637 213.787C98.0175 234.938 113.257 261.777 137.886 261.777L137.886 258.577ZM264.503 258.576L137.886 258.577L137.886 261.777L264.503 261.776L264.503 258.576ZM289.709 243.413C284.761 252.743 275.064 258.576 264.503 258.576L264.503 261.776C276.248 261.776 287.033 255.289 292.536 244.912L289.709 243.413ZM322.604 181.387L289.709 243.413L292.536 244.912L325.431 182.886L322.604 181.387ZM297.398 139.488C318.908 139.488 332.682 162.385 322.604 181.387L325.431 182.886C336.639 161.753 321.32 136.288 297.398 136.288V139.488ZM174.893 139.489L297.398 139.488V136.288L174.893 136.289L174.893 139.489ZM92.1388 292.726C80.9649 292.726 70.6146 298.603 64.8894 308.199L67.6375 309.838C72.7853 301.21 82.0918 295.926 92.1388 295.926L92.1388 292.726ZM214.644 292.725L92.1388 292.726L92.1388 295.926L214.644 295.925L214.644 292.725ZM242.677 339.323C253.885 318.189 238.566 292.725 214.644 292.725L214.644 295.925C236.154 295.925 249.928 318.821 239.85 337.824L242.677 339.323ZM209.782 401.349L242.677 339.323L239.85 337.824L206.955 399.85L209.782 401.349ZM181.749 418.213C193.495 418.213 204.279 411.725 209.782 401.349L206.955 399.85C202.007 409.18 192.31 415.013 181.749 415.013L181.749 418.213ZM55.1325 418.213L181.749 418.213L181.749 415.013L55.1325 415.013L55.1325 418.213ZM27.8829 370.224C15.2636 391.375 30.5032 418.213 55.1325 418.213L55.1325 415.013C32.987 415.013 19.2843 390.882 30.631 371.864L27.8829 370.224ZM64.8894 308.199L27.8829 370.224L30.631 371.864L67.6375 309.838L64.8894 308.199ZM229.748 444.736C234.895 436.108 244.202 430.823 254.249 430.823L254.249 427.623C243.075 427.623 232.725 433.501 227 443.096L229.748 444.736ZM192.741 506.761L229.748 444.736L227 443.096L189.993 505.122L192.741 506.761ZM217.243 549.911C195.097 549.911 181.394 525.779 192.741 506.761L189.993 505.122C177.374 526.273 192.613 553.111 217.243 553.111L217.243 549.911ZM343.859 549.911L217.243 549.911L217.243 553.111L343.859 553.111V549.911ZM369.065 534.747C364.117 544.077 354.42 549.911 343.859 549.911V553.111C355.605 553.111 366.389 546.623 371.892 536.247L369.065 534.747ZM401.96 472.721L369.065 534.747L371.892 536.247L404.787 474.221L401.96 472.721ZM376.754 430.823C398.264 430.823 412.038 453.719 401.96 472.721L404.787 474.221C415.996 453.087 400.676 427.623 376.754 427.623V430.823ZM254.249 430.823L376.754 430.823V427.623L254.249 427.623L254.249 430.823Z" fill="url(#paint0_linear_35_252)" mask="url(#path-1-outside-1_35_252)"/>
<mask id="path-3-outside-2_35_252" maskUnits="userSpaceOnUse" x="11.7549" y="11.5671" width="561" height="529" fill="black">
<rect fill="white" x="11.7549" y="11.5671" width="561" height="529"/>
<path fill-rule="evenodd" clip-rule="evenodd" d="M418.018 13.5678C407.407 13.5679 397.579 19.1487 392.142 28.2607L355.136 90.2861C343.153 110.37 357.624 135.855 381.011 135.855L507.628 135.855C518.781 135.855 529.022 129.695 534.247 119.842L567.142 57.8156C577.785 37.7474 563.239 13.567 540.523 13.5671L418.018 13.5678ZM163.693 125.089C153.082 125.089 143.254 130.67 137.817 139.782L100.811 201.807C88.8277 221.892 103.299 247.377 126.686 247.376L253.303 247.376C264.456 247.376 274.697 241.216 279.922 231.363L312.817 169.337C323.46 149.269 308.914 125.088 286.198 125.088L163.693 125.089ZM55.0633 296.218C60.4998 287.107 70.3281 281.526 80.9386 281.526L203.444 281.525C226.16 281.525 240.707 305.705 230.063 325.773L197.168 387.799C191.943 397.652 181.702 403.813 170.549 403.813L43.9323 403.813C20.5449 403.813 6.07376 378.328 18.0567 358.244L55.0633 296.218ZM243.049 416.423C232.438 416.423 222.61 422.004 217.173 431.116L180.167 493.142C168.184 513.226 182.655 538.711 206.042 538.711L332.659 538.711C343.812 538.711 354.053 532.55 359.278 522.697L392.174 460.671C402.817 440.603 388.27 416.422 365.554 416.423L243.049 416.423Z"/>
</mask>
<path fill-rule="evenodd" clip-rule="evenodd" d="M418.018 13.5678C407.407 13.5679 397.579 19.1487 392.142 28.2607L355.136 90.2861C343.153 110.37 357.624 135.855 381.011 135.855L507.628 135.855C518.781 135.855 529.022 129.695 534.247 119.842L567.142 57.8156C577.785 37.7474 563.239 13.567 540.523 13.5671L418.018 13.5678ZM163.693 125.089C153.082 125.089 143.254 130.67 137.817 139.782L100.811 201.807C88.8277 221.892 103.299 247.377 126.686 247.376L253.303 247.376C264.456 247.376 274.697 241.216 279.922 231.363L312.817 169.337C323.46 149.269 308.914 125.088 286.198 125.088L163.693 125.089ZM55.0633 296.218C60.4998 287.107 70.3281 281.526 80.9386 281.526L203.444 281.525C226.16 281.525 240.707 305.705 230.063 325.773L197.168 387.799C191.943 397.652 181.702 403.813 170.549 403.813L43.9323 403.813C20.5449 403.813 6.07376 378.328 18.0567 358.244L55.0633 296.218ZM243.049 416.423C232.438 416.423 222.61 422.004 217.173 431.116L180.167 493.142C168.184 513.226 182.655 538.711 206.042 538.711L332.659 538.711C343.812 538.711 354.053 532.55 359.278 522.697L392.174 460.671C402.817 440.603 388.27 416.422 365.554 416.423L243.049 416.423Z" fill="#E9E9E9"/>
<path d="M392.142 28.2607L390.768 27.4409V27.4409L392.142 28.2607ZM418.018 13.5678V11.9678V13.5678ZM355.136 90.2861L353.762 89.4663L355.136 90.2861ZM381.011 135.855V137.455V135.855ZM507.628 135.855V134.255V135.855ZM534.247 119.842L532.834 119.092V119.092L534.247 119.842ZM567.142 57.8156L565.729 57.0659V57.0659L567.142 57.8156ZM540.523 13.5671V11.9671V13.5671ZM137.817 139.782L139.191 140.602L137.817 139.782ZM163.693 125.089V126.689V125.089ZM100.811 201.807L99.4366 200.987L100.811 201.807ZM126.686 247.376V245.776V247.376ZM253.303 247.376L253.303 245.776L253.303 247.376ZM279.922 231.363L278.509 230.613L279.922 231.363ZM312.817 169.337L314.231 170.086L312.817 169.337ZM286.198 125.088V123.488V125.088ZM80.9386 281.526L80.9386 279.926L80.9386 281.526ZM55.0633 296.218L56.4373 297.038L55.0633 296.218ZM203.444 281.525L203.444 279.925L203.444 281.525ZM230.063 325.773L231.477 326.523L230.063 325.773ZM197.168 387.799L198.582 388.549L197.168 387.799ZM170.549 403.813V405.413V403.813ZM43.9323 403.813L43.9323 405.413L43.9323 403.813ZM18.0567 358.244L16.6827 357.424H16.6827L18.0567 358.244ZM217.173 431.116L218.547 431.936L217.173 431.116ZM243.049 416.423L243.049 414.823L243.049 416.423ZM180.167 493.142L178.793 492.322L180.167 493.142ZM206.042 538.711L206.042 537.111L206.042 538.711ZM332.659 538.711V537.111V538.711ZM359.278 522.697L360.692 523.447L359.278 522.697ZM392.174 460.671L390.76 459.921L392.174 460.671ZM365.554 416.423V414.823V416.423ZM393.516 29.0805C398.664 20.4524 407.971 15.1679 418.018 15.1678V11.9678C406.844 11.9679 396.493 17.8451 390.768 27.4409L393.516 29.0805ZM356.51 91.1059L393.516 29.0805L390.768 27.4409L353.762 89.4663L356.51 91.1059ZM381.011 134.255C358.866 134.255 345.163 110.124 356.51 91.1059L353.762 89.4663C341.142 110.617 356.382 137.455 381.011 137.455V134.255ZM507.628 134.255L381.011 134.255V137.455L507.628 137.455V134.255ZM532.834 119.092C527.886 128.422 518.189 134.255 507.628 134.255V137.455C519.373 137.455 530.158 130.967 535.661 120.591L532.834 119.092ZM565.729 57.0659L532.834 119.092L535.661 120.591L568.556 58.5652L565.729 57.0659ZM540.523 15.1671C562.033 15.167 575.807 38.0634 565.729 57.0659L568.556 58.5652C579.764 37.4314 564.445 11.967 540.523 11.9671L540.523 15.1671ZM418.018 15.1678L540.523 15.1671L540.523 11.9671L418.018 11.9678V15.1678ZM139.191 140.602C144.339 131.973 153.645 126.689 163.693 126.689L163.693 123.489C152.519 123.489 142.168 129.366 136.443 138.962L139.191 140.602ZM102.185 202.627L139.191 140.602L136.443 138.962L99.4366 200.987L102.185 202.627ZM126.686 245.776C104.541 245.777 90.838 221.645 102.185 202.627L99.4366 200.987C86.8173 222.138 102.057 248.977 126.686 248.976L126.686 245.776ZM253.303 245.776L126.686 245.776L126.686 248.976L253.303 248.976L253.303 245.776ZM278.509 230.613C273.561 239.943 263.864 245.776 253.303 245.776L253.303 248.976C265.048 248.976 275.833 242.488 281.336 232.112L278.509 230.613ZM311.404 168.587L278.509 230.613L281.336 232.112L314.231 170.086L311.404 168.587ZM286.198 126.688C307.707 126.688 321.482 149.585 311.404 168.587L314.231 170.086C325.439 148.953 310.12 123.488 286.198 123.488V126.688ZM163.693 126.689L286.198 126.688V123.488L163.693 123.489L163.693 126.689ZM80.9386 279.926C69.7647 279.926 59.4144 285.803 53.6892 295.399L56.4373 297.038C61.5851 288.41 70.8916 283.126 80.9386 283.126L80.9386 279.926ZM203.444 279.925L80.9386 279.926L80.9386 283.126L203.444 283.125L203.444 279.925ZM231.477 326.523C242.685 305.389 227.366 279.925 203.444 279.925L203.444 283.125C224.954 283.125 238.728 306.021 228.65 325.024L231.477 326.523ZM198.582 388.549L231.477 326.523L228.65 325.024L195.755 387.05L198.582 388.549ZM170.549 405.413C182.294 405.413 193.079 398.925 198.582 388.549L195.755 387.05C190.807 396.379 181.11 402.213 170.549 402.213L170.549 405.413ZM43.9323 405.413L170.549 405.413L170.549 402.213L43.9323 402.213L43.9323 405.413ZM16.6827 357.424C4.06343 378.575 19.303 405.413 43.9323 405.413L43.9323 402.213C21.7868 402.213 8.0841 378.082 19.4308 359.064L16.6827 357.424ZM53.6892 295.399L16.6827 357.424L19.4308 359.064L56.4373 297.038L53.6892 295.399ZM218.547 431.936C223.695 423.308 233.002 418.023 243.049 418.023L243.049 414.823C231.875 414.823 221.525 420.701 215.799 430.296L218.547 431.936ZM181.541 493.961L218.547 431.936L215.799 430.296L178.793 492.322L181.541 493.961ZM206.042 537.111C183.897 537.111 170.194 512.979 181.541 493.961L178.793 492.322C166.174 513.473 181.413 540.311 206.042 540.311L206.042 537.111ZM332.659 537.111L206.042 537.111L206.042 540.311L332.659 540.311V537.111ZM357.865 521.947C352.917 531.277 343.22 537.111 332.659 537.111V540.311C344.404 540.311 355.189 533.823 360.692 523.447L357.865 521.947ZM390.76 459.921L357.865 521.947L360.692 523.447L393.587 461.421L390.76 459.921ZM365.554 418.023C387.064 418.022 400.838 440.919 390.76 459.921L393.587 461.421C404.795 440.287 389.476 414.822 365.554 414.823V418.023ZM243.049 418.023L365.554 418.023V414.823L243.049 414.823L243.049 418.023Z" fill="url(#paint1_linear_35_252)" mask="url(#path-3-outside-2_35_252)"/>
<mask id="path-5-outside-3_35_252" maskUnits="userSpaceOnUse" x="0.555176" y="0.367188" width="561" height="529" fill="black">
<rect fill="white" x="0.555176" y="0.367188" width="561" height="529"/>
<path fill-rule="evenodd" clip-rule="evenodd" d="M406.818 2.36786C396.207 2.36791 386.379 7.9488 380.942 17.0607L343.936 79.0862C331.953 99.1705 346.424 124.656 369.811 124.655L496.428 124.655C507.581 124.655 517.822 118.495 523.047 108.642L555.943 46.6156C566.586 26.5475 552.039 2.36706 529.323 2.36719L406.818 2.36786ZM152.493 113.889C141.882 113.889 132.054 119.47 126.617 128.582L89.6109 190.607C77.628 210.692 92.0991 236.177 115.487 236.177L242.103 236.176C253.256 236.176 263.497 230.016 268.722 220.163L301.618 158.137C312.261 138.069 297.714 113.888 274.998 113.888L152.493 113.889ZM43.8636 285.019C49.3 275.907 59.1284 270.326 69.7389 270.326L192.244 270.325C214.96 270.325 229.507 294.505 218.864 314.573L185.969 376.599C180.743 386.452 170.502 392.613 159.349 392.613L32.7326 392.613C9.34521 392.613 -5.12594 367.128 6.85703 347.044L43.8636 285.019ZM231.849 405.223C221.239 405.223 211.41 410.804 205.974 419.916L168.967 481.942C156.984 502.026 171.455 527.511 194.843 527.511L321.46 527.511C332.613 527.511 342.853 521.35 348.079 511.497L380.974 449.471C391.617 429.403 377.07 405.223 354.354 405.223L231.849 405.223Z"/>
</mask>
<path fill-rule="evenodd" clip-rule="evenodd" d="M406.818 2.36786C396.207 2.36791 386.379 7.9488 380.942 17.0607L343.936 79.0862C331.953 99.1705 346.424 124.656 369.811 124.655L496.428 124.655C507.581 124.655 517.822 118.495 523.047 108.642L555.943 46.6156C566.586 26.5475 552.039 2.36706 529.323 2.36719L406.818 2.36786ZM152.493 113.889C141.882 113.889 132.054 119.47 126.617 128.582L89.6109 190.607C77.628 210.692 92.0991 236.177 115.487 236.177L242.103 236.176C253.256 236.176 263.497 230.016 268.722 220.163L301.618 158.137C312.261 138.069 297.714 113.888 274.998 113.888L152.493 113.889ZM43.8636 285.019C49.3 275.907 59.1284 270.326 69.7389 270.326L192.244 270.325C214.96 270.325 229.507 294.505 218.864 314.573L185.969 376.599C180.743 386.452 170.502 392.613 159.349 392.613L32.7326 392.613C9.34521 392.613 -5.12594 367.128 6.85703 347.044L43.8636 285.019ZM231.849 405.223C221.239 405.223 211.41 410.804 205.974 419.916L168.967 481.942C156.984 502.026 171.455 527.511 194.843 527.511L321.46 527.511C332.613 527.511 342.853 521.35 348.079 511.497L380.974 449.471C391.617 429.403 377.07 405.223 354.354 405.223L231.849 405.223Z" fill="#E9E9E9"/>
<path d="M380.942 17.0607L379.568 16.2409L380.942 17.0607ZM406.818 2.36786V0.767857V2.36786ZM343.936 79.0862L342.562 78.2664L343.936 79.0862ZM369.811 124.655V126.255V124.655ZM496.428 124.655V126.255H496.428L496.428 124.655ZM523.047 108.642L521.634 107.892L523.047 108.642ZM555.943 46.6156L554.529 45.866L555.943 46.6156ZM529.323 2.36719V0.767187V2.36719ZM126.617 128.582L127.991 129.402L126.617 128.582ZM152.493 113.889V115.489V113.889ZM89.6109 190.607L88.2369 189.787L89.6109 190.607ZM115.487 236.177L115.486 234.577L115.487 236.177ZM242.103 236.176V234.576V236.176ZM268.722 220.163L267.309 219.413L268.722 220.163ZM301.618 158.137L303.031 158.886L301.618 158.137ZM274.998 113.888V112.288V113.888ZM69.7389 270.326L69.7389 268.726L69.7389 270.326ZM43.8636 285.019L45.2376 285.838L43.8636 285.019ZM192.244 270.325L192.244 268.725L192.244 270.325ZM218.864 314.573L220.277 315.323L218.864 314.573ZM185.969 376.599L187.382 377.349L185.969 376.599ZM159.349 392.613V394.213V392.613ZM32.7326 392.613L32.7326 394.213L32.7326 392.613ZM6.85703 347.044L5.48301 346.224H5.48301L6.85703 347.044ZM205.974 419.916L207.348 420.736L205.974 419.916ZM231.849 405.223L231.849 403.623L231.849 405.223ZM168.967 481.942L167.593 481.122L168.967 481.942ZM194.843 527.511V525.911V527.511ZM321.46 527.511V525.911V527.511ZM348.079 511.497L349.492 512.247L348.079 511.497ZM380.974 449.471L379.56 448.721L380.974 449.471ZM354.354 405.223V403.623V405.223ZM382.316 17.8805C387.464 9.25244 396.771 3.96791 406.818 3.96786L406.818 0.767857C395.644 0.767918 385.294 6.64515 379.568 16.2409L382.316 17.8805ZM345.31 79.906L382.316 17.8805L379.568 16.2409L342.562 78.2664L345.31 79.906ZM369.811 123.055C347.666 123.056 333.963 98.9238 345.31 79.906L342.562 78.2664C329.943 99.4172 345.182 126.256 369.811 126.255V123.055ZM496.428 123.055L369.811 123.055V126.255L496.428 126.255V123.055ZM521.634 107.892C516.686 117.222 506.989 123.055 496.428 123.055L496.428 126.255C508.173 126.255 518.958 119.767 524.461 109.391L521.634 107.892ZM554.529 45.866L521.634 107.892L524.461 109.391L557.356 47.3653L554.529 45.866ZM529.323 3.96719C550.833 3.96707 564.607 26.8635 554.529 45.866L557.356 47.3653C568.564 26.2315 553.245 0.767057 529.323 0.767187V3.96719ZM406.818 3.96786L529.323 3.96719V0.767187L406.818 0.767857L406.818 3.96786ZM127.991 129.402C133.139 120.774 142.446 115.489 152.493 115.489L152.493 112.289C141.319 112.289 130.969 118.166 125.243 127.762L127.991 129.402ZM90.985 191.427L127.991 129.402L125.243 127.762L88.2369 189.787L90.985 191.427ZM115.486 234.577C93.341 234.577 79.6383 210.445 90.985 191.427L88.2369 189.787C75.6176 210.938 90.8572 237.777 115.487 237.777L115.486 234.577ZM242.103 234.576L115.486 234.577L115.487 237.777L242.103 237.776V234.576ZM267.309 219.413C262.361 228.743 252.664 234.576 242.103 234.576V237.776C253.849 237.776 264.633 231.289 270.136 220.912L267.309 219.413ZM300.204 157.387L267.309 219.413L270.136 220.912L303.031 158.886L300.204 157.387ZM274.998 115.488C296.508 115.488 310.282 138.385 300.204 157.387L303.031 158.886C314.239 137.753 298.92 112.288 274.998 112.288L274.998 115.488ZM152.493 115.489L274.998 115.488L274.998 112.288L152.493 112.289L152.493 115.489ZM69.7389 268.726C58.565 268.726 48.2147 274.603 42.4895 284.199L45.2376 285.838C50.3854 277.21 59.6919 271.926 69.7389 271.926L69.7389 268.726ZM192.244 268.725L69.7389 268.726L69.7389 271.926L192.244 271.925L192.244 268.725ZM220.277 315.323C231.485 294.189 216.166 268.725 192.244 268.725L192.244 271.925C213.754 271.925 227.528 294.821 217.45 313.824L220.277 315.323ZM187.382 377.349L220.277 315.323L217.45 313.824L184.555 375.85L187.382 377.349ZM159.349 394.213C171.095 394.213 181.879 387.725 187.382 377.349L184.555 375.85C179.607 385.18 169.91 391.013 159.349 391.013V394.213ZM32.7326 394.213L159.349 394.213V391.013L32.7326 391.013L32.7326 394.213ZM5.48301 346.224C-7.13628 367.375 8.10331 394.213 32.7326 394.213L32.7326 391.013C10.5871 391.013 -3.11561 366.882 8.23106 347.864L5.48301 346.224ZM42.4895 284.199L5.48301 346.224L8.23106 347.864L45.2376 285.838L42.4895 284.199ZM207.348 420.736C212.496 412.108 221.802 406.823 231.849 406.823L231.849 403.623C220.675 403.623 210.325 409.501 204.6 419.096L207.348 420.736ZM170.341 482.761L207.348 420.736L204.6 419.096L167.593 481.122L170.341 482.761ZM194.843 525.911C172.697 525.911 158.995 501.779 170.341 482.761L167.593 481.122C154.974 502.273 170.213 529.111 194.843 529.111V525.911ZM321.46 525.911L194.843 525.911V529.111L321.46 529.111L321.46 525.911ZM346.665 510.747C341.717 520.077 332.02 525.911 321.46 525.911V529.111C333.205 529.111 343.989 522.623 349.492 512.247L346.665 510.747ZM379.56 448.721L346.665 510.747L349.492 512.247L382.387 450.221L379.56 448.721ZM354.355 406.823C375.864 406.823 389.638 429.719 379.56 448.721L382.387 450.221C393.596 429.087 378.276 403.623 354.354 403.623L354.355 406.823ZM231.849 406.823L354.355 406.823L354.354 403.623L231.849 403.623L231.849 406.823Z" fill="url(#paint2_linear_35_252)" mask="url(#path-5-outside-3_35_252)"/>
<defs>
<linearGradient id="paint0_linear_35_252" x1="303.425" y1="26.3672" x2="303.425" y2="551.511" gradientUnits="userSpaceOnUse">
<stop stop-color="#3A47E1"/>
<stop offset="1" stop-color="#31BDFE"/>
</linearGradient>
<linearGradient id="paint1_linear_35_252" x1="292.225" y1="13.5671" x2="292.225" y2="538.711" gradientUnits="userSpaceOnUse">
<stop stop-color="#3A47E1"/>
<stop offset="1" stop-color="#31BDFE"/>
</linearGradient>
<linearGradient id="paint2_linear_35_252" x1="281.026" y1="2.36719" x2="281.026" y2="527.511" gradientUnits="userSpaceOnUse">
<stop stop-color="#3A47E1"/>
<stop offset="1" stop-color="#31BDFE"/>
</linearGradient>
</defs>
</svg>
