<svg width="104" height="133" viewBox="0 0 104 133" fill="none" xmlns="http://www.w3.org/2000/svg">
<path d="M51.9999 102.65C57.983 102.65 62.8332 97.7999 62.8332 91.8168C62.8332 85.8338 57.983 80.9835 51.9999 80.9835C46.0168 80.9835 41.1666 85.8338 41.1666 91.8168C41.1666 97.7999 46.0168 102.65 51.9999 102.65ZM51.9999 102.65V117.095M1.44434 66.5391H102.555V120.706C102.555 126.689 97.7052 131.539 91.7221 131.539H12.2777C6.29458 131.539 1.44434 126.689 1.44434 120.706V66.5391ZM51.9999 1.53906C67.9548 1.53906 80.8888 14.4731 80.8888 30.428V66.5391H23.111V30.428C23.111 14.4731 36.045 1.53906 51.9999 1.53906Z" stroke="url(#paint0_linear_35_251)" stroke-width="1.5" stroke-linecap="round"/>
<defs>
<linearGradient id="paint0_linear_35_251" x1="51.9999" y1="1.53906" x2="51.9999" y2="131.539" gradientUnits="userSpaceOnUse">
<stop stop-color="#3A47E1"/>
<stop offset="1" stop-color="#31BDFE"/>
</linearGradient>
</defs>
</svg>
