<svg width="266" height="70" viewBox="0 0 266 70" fill="none" xmlns="http://www.w3.org/2000/svg">
<path d="M54.0173 1.95862C54.742 0.744041 56.0521 0.000133459 57.4664 0.00012573L73.7959 3.6487e-05C76.8238 1.99391e-05 78.7628 3.22316 77.3441 5.89816L72.9593 14.166C72.2628 15.4793 70.8977 16.3005 69.4111 16.3005L52.5336 16.3005C49.4162 16.3005 47.4872 12.9035 49.0845 10.2263L54.0173 1.95862Z" fill="black"/>
<path d="M20.1169 16.8239C20.8416 15.6093 22.1517 14.8654 23.566 14.8654L39.8955 14.8653C42.9234 14.8653 44.8624 18.0884 43.4437 20.7634L39.0589 29.0312C38.3624 30.3446 36.9974 31.1657 35.5107 31.1657L18.6332 31.1658C15.5158 31.1658 13.5869 27.7687 15.1841 25.0916L20.1169 16.8239Z" fill="black"/>
<path d="M9.08619 37.6764C9.81085 36.4618 11.1209 35.7179 12.5353 35.7179L28.8647 35.7178C31.8926 35.7178 33.8316 38.9409 32.413 41.6159L28.0282 49.8837C27.3316 51.1971 25.9666 52.0183 24.48 52.0183L7.60248 52.0183C4.48504 52.0183 2.5561 48.6213 4.15338 45.9441L9.08619 37.6764Z" fill="black"/>
<path d="M30.6946 55.6578C31.4192 54.4433 32.7293 53.6994 34.1437 53.6993L50.4731 53.6993C53.501 53.6992 55.44 56.9224 54.0214 59.5974L49.6366 67.8652C48.94 69.1785 47.575 69.9997 46.0884 69.9997L29.2109 69.9998C26.0934 69.9998 24.1645 66.6027 25.7618 63.9256L30.6946 55.6578Z" fill="black"/>
<path d="M234.423 20.6463C234.423 19.9946 234.951 19.4663 235.603 19.4663H264.083C264.734 19.4663 265.263 19.9946 265.263 20.6463V23.7982C265.263 24.4499 264.734 24.9782 264.083 24.9782H253.779C253.127 24.9782 252.599 25.5065 252.599 26.1581V56.8425C252.599 57.4942 252.071 58.0225 251.419 58.0225H248.267C247.615 58.0225 247.087 57.4942 247.087 56.8425V26.1581C247.087 25.5065 246.559 24.9782 245.907 24.9782H235.603C234.951 24.9782 234.423 24.4499 234.423 23.7982V20.6463Z" fill="black"/>
<path d="M227.809 52.5106C227.809 53.2634 227.666 53.9804 227.379 54.6616C227.092 55.3248 226.698 55.9073 226.196 56.4092C225.694 56.9111 225.103 57.3055 224.421 57.5923C223.758 57.8791 223.05 58.0225 222.297 58.0225H200.277C199.524 58.0225 198.807 57.8791 198.126 57.5923C197.463 57.3055 196.88 56.9111 196.378 56.4092C195.876 55.9073 195.482 55.3248 195.195 54.6616C194.908 53.9804 194.765 53.2634 194.765 52.5106V24.9782C194.765 24.2253 194.908 23.5173 195.195 22.8541C195.482 22.1729 195.876 21.5904 196.378 21.1064C196.88 20.6045 197.463 20.2102 198.126 19.9234C198.807 19.6187 199.524 19.4663 200.277 19.4663H222.297C223.05 19.4663 223.758 19.6187 224.421 19.9234C225.103 20.2102 225.694 20.6045 226.196 21.1064C226.698 21.5904 227.092 22.1729 227.379 22.8541C227.666 23.5173 227.809 24.2253 227.809 24.9782V52.5106ZM201.457 24.9782C200.805 24.9782 200.277 25.5065 200.277 26.1581V51.3306C200.277 51.9823 200.805 52.5106 201.457 52.5106H221.117C221.769 52.5106 222.297 51.9823 222.297 51.3306V26.1581C222.297 25.5065 221.769 24.9782 221.117 24.9782H201.457Z" fill="black"/>
<path d="M183.18 36.5254C182.571 37.1385 182.658 38.4896 183.365 38.9864C184.028 39.4524 184.593 40.0529 185.059 40.7878C185.525 41.5048 185.883 42.3562 186.134 43.3421C186.385 44.328 186.51 45.4572 186.51 46.7299V48.6657C186.51 54.9036 183.392 58.0225 177.154 58.0225H157.227C156.576 58.0225 156.047 57.4942 156.047 56.8425V20.6463C156.047 19.9946 156.576 19.4663 157.227 19.4663H176.051C182.289 19.4663 185.408 22.5942 185.408 28.8499V29.549C185.408 31.7179 185.059 33.4924 184.36 34.8726C184.047 35.497 183.654 36.0479 183.18 36.5254ZM162.632 41.218C161.98 41.218 161.452 41.7463 161.452 42.398V51.4382C161.452 52.0899 161.98 52.6182 162.632 52.6182H176.992C178.444 52.6182 179.493 52.2776 180.138 51.5964C180.784 50.9153 181.106 49.8488 181.106 48.3969V45.4124C181.106 43.9426 180.784 42.876 180.138 42.2128C179.493 41.5496 178.444 41.218 176.992 41.218H162.632ZM162.632 24.8706C161.98 24.8706 161.452 25.3989 161.452 26.0506V34.6606C161.452 35.3123 161.98 35.8406 162.632 35.8406H176.266C177.593 35.7868 178.543 35.4283 179.117 34.7651C179.708 34.084 180.004 33.0443 180.004 31.6462V29.1188C180.004 27.649 179.681 26.5735 179.036 25.8923C178.391 25.2112 177.342 24.8706 175.89 24.8706H162.632Z" fill="black"/>
<path d="M119.696 20.6463C119.696 19.9946 120.224 19.4663 120.876 19.4663H146.613C147.265 19.4663 147.793 19.9946 147.793 20.6463V23.7982C147.793 24.4499 147.265 24.9782 146.613 24.9782H126.388C125.736 24.9782 125.208 25.5065 125.208 26.1581V34.8219C125.208 35.4736 125.736 36.0019 126.388 36.0019H143.306C143.958 36.0019 144.486 36.5302 144.486 37.1819V40.3338C144.486 40.9855 143.958 41.5138 143.306 41.5138H126.388C125.736 41.5138 125.208 42.0421 125.208 42.6937V51.3306C125.208 51.9823 125.736 52.5106 126.388 52.5106H146.613C147.265 52.5106 147.793 53.0389 147.793 53.6906V56.8425C147.793 57.4942 147.265 58.0225 146.613 58.0225H120.876C120.224 58.0225 119.696 57.4942 119.696 56.8425V20.6463Z" fill="black"/>
<path d="M78.9351 24.9782C78.9351 24.2253 79.0785 23.5173 79.3653 22.8541C79.652 22.1729 80.0464 21.5904 80.5483 21.1064C81.0502 20.6045 81.6327 20.2102 82.296 19.9234C82.9771 19.6187 83.6941 19.4663 84.4469 19.4663H105.365C106.118 19.4663 106.826 19.6187 107.489 19.9234C108.17 20.2102 108.762 20.6045 109.264 21.1064C109.766 21.5904 110.16 22.1729 110.447 22.8541C110.734 23.5173 110.877 24.2253 110.877 24.9782V28.7723C110.877 29.424 110.349 29.9523 109.697 29.9523H106.545C105.893 29.9523 105.365 29.424 105.365 28.7723V26.1581C105.365 25.5065 104.837 24.9782 104.185 24.9782H85.6269C84.9752 24.9782 84.4469 25.5065 84.4469 26.1581V51.3306C84.4469 51.9823 84.9752 52.5106 85.6269 52.5106H104.185C104.837 52.5106 105.365 51.9823 105.365 51.3306V48.7433C105.365 48.0917 105.893 47.5634 106.545 47.5634H109.697C110.349 47.5634 110.877 48.0917 110.877 48.7433V52.5106C110.877 53.2634 110.734 53.9804 110.447 54.6616C110.16 55.3248 109.766 55.9073 109.264 56.4092C108.762 56.9111 108.17 57.3055 107.489 57.5923C106.826 57.8791 106.118 58.0225 105.365 58.0225H84.4469C83.6941 58.0225 82.9771 57.8791 82.296 57.5923C81.6327 57.3055 81.0502 56.9111 80.5483 56.4092C80.0464 55.9073 79.652 55.3248 79.3653 54.6616C79.0785 53.9804 78.9351 53.2634 78.9351 52.5106V24.9782Z" fill="black"/>
</svg>
