<svg width="58" height="71" viewBox="0 0 58 71" fill="none" xmlns="http://www.w3.org/2000/svg">
<g clip-path="url(#clip0_53_4386)">
<path d="M32.2453 32.8656L31.841 32.4628L31.7804 32.3984L25.2236 38.9855H25.2202L25.2842 39.0464L25.6919 39.456L25.7458 39.5135L30.1193 35.1199L32.306 32.9231L32.2453 32.8656Z" fill="#E67EBE"/>
<path d="M28.2159 23.6549C28.2125 23.4755 28.2125 23.2961 28.2159 23.1201L28.2192 23.0151H18.9468V23.7598H28.2192L28.2159 23.6549Z" fill="#E67EBE"/>
<path d="M29.3109 28.6588C29.2402 28.4929 29.1694 28.3304 29.1054 28.1646L29.0683 28.0664L20.5034 31.6273L20.7864 32.3145L29.3514 28.7502L29.3109 28.6588Z" fill="#E67EBE"/>
<path d="M31.9286 14.2211C31.9657 14.1839 31.9994 14.1432 32.0364 14.106C32.0735 14.0688 32.1139 14.0315 32.151 13.9977L32.306 13.8488L25.7458 7.26172L25.2202 7.78977L31.777 14.3768L31.9286 14.2211Z" fill="#E67EBE"/>
<path d="M45.9282 11.1245L46.0259 11.1617C46.191 11.226 46.3561 11.2937 46.5179 11.3682L46.6122 11.4088L50.1601 2.80435L49.4762 2.52002L45.9282 11.1245Z" fill="#E67EBE"/>
<path d="M36.029 11.3682C36.1907 11.2971 36.3558 11.226 36.5209 11.1617L36.6186 11.1245L33.0707 2.52002L32.3867 2.80435L35.9347 11.4088L36.029 11.3682Z" fill="#E67EBE"/>
<path d="M40.9011 0.956055V10.2747L41.0056 10.2713C41.1841 10.268 41.3627 10.268 41.5379 10.2713L41.6424 10.2747V0.95944H40.9011V0.956055Z" fill="#E67EBE"/>
<path d="M29.1054 18.6152C29.1694 18.4493 29.2402 18.2834 29.3109 18.121L29.3514 18.0262L20.7864 14.4585L20.5034 15.1456L29.0683 18.7099L29.1054 18.6152Z" fill="#E67EBE"/>
<path d="M11.0085 60.544L10.9141 60.5034L7.36621 69.1079L8.05019 69.3922L11.5981 60.7877L11.5004 60.7505C11.3353 60.6828 11.1702 60.6151 11.0085 60.544Z" fill="#E67EBE"/>
<path d="M28.4213 53.2964C28.3572 53.4623 28.2865 53.6281 28.2157 53.7906L28.1753 53.8854L36.7402 57.4497L37.0232 56.7626L28.4583 53.1982L28.4213 53.2964Z" fill="#E67EBE"/>
<path d="M29.3074 48.1514L29.3107 48.2563C29.3141 48.4357 29.3141 48.6117 29.3107 48.7911L29.3074 48.8961H38.5798V48.1514H29.3074Z" fill="#E67EBE"/>
<path d="M28.2157 43.2538C28.2865 43.4163 28.3572 43.5822 28.4213 43.748L28.4583 43.8462L37.0232 40.2819L36.7402 39.5947L28.1753 43.159L28.2157 43.2538Z" fill="#E67EBE"/>
<path d="M15.9851 61.6406L15.8806 61.6372V70.9525H16.6219V61.6372L16.5174 61.6406C16.3422 61.644 16.1636 61.644 15.9851 61.6406Z" fill="#E67EBE"/>
<path d="M25.601 57.687C25.5639 57.7276 25.5302 57.7648 25.4898 57.802C25.4527 57.8393 25.4123 57.8765 25.3718 57.9137L25.2202 58.0593L31.777 64.6463L32.3026 64.1183L25.7458 57.5312L25.601 57.687Z" fill="#E67EBE"/>
<path d="M21.4974 60.544C21.3356 60.6151 21.1705 60.6862 21.0054 60.7505L20.9077 60.7877L24.4556 69.3922L25.1396 69.1079L21.5917 60.5034L21.4974 60.544Z" fill="#E67EBE"/>
<path d="M50.7668 14.3768L55.1403 9.98657L57.327 7.78638L57.2663 7.72884L56.862 7.32603L56.8013 7.26172L50.2412 13.8488L50.2985 13.9029L50.7129 14.3193L50.7668 14.3768Z" fill="#E67EBE"/>
<path d="M6.86742 57.5448L6.81014 57.4839L6.80677 57.4873L0.25 64.0709V64.0743L0.307279 64.1285L0.718341 64.5414L0.77562 64.599L7.33239 58.0119L7.27174 57.951L6.86742 57.5448Z" fill="#E67EBE"/>
</g>
<defs>
<clipPath id="clip0_53_4386">
<rect width="57.0769" height="70" fill="white" transform="translate(0.25 0.956055)"/>
</clipPath>
</defs>
</svg>
