<svg width="71" height="71" viewBox="0 0 71 71" fill="none" xmlns="http://www.w3.org/2000/svg">
<g clip-path="url(#clip0_53_4495)">
<path d="M41.0576 65.9547C34.3867 59.2839 34.3867 48.4348 41.0576 41.7639C47.7285 35.093 58.5776 35.093 65.2484 41.7639C71.9193 48.4348 71.9193 59.2839 65.2484 65.9547C58.5776 72.6214 47.7285 72.6214 41.0576 65.9547ZM64.702 42.3103C58.3338 35.9421 47.9723 35.9421 41.604 42.3103C35.2358 48.6786 35.2358 59.0401 41.604 65.4083C47.9723 71.7765 58.3338 71.7765 64.702 65.4083C71.0702 59.0401 71.0702 48.6786 64.702 42.3103Z" fill="#E67EBE"/>
<path d="M41.6037 42.3104C44.5629 39.3511 48.3881 37.7833 52.272 37.5773C52.7344 32.6761 51.0909 27.6109 47.3456 23.8614C40.6747 17.1906 29.8256 17.1948 23.1548 23.8614C16.4839 30.5323 16.4839 41.3814 23.1548 48.0523C26.9 51.7975 31.9652 53.4411 36.8664 52.9787C37.0766 49.0905 38.6445 45.2696 41.6037 42.3104Z" fill="#E67EBE"/>
<path d="M17.0048 34.3614C12.9358 34.2773 8.89212 32.701 5.79418 29.6031C-0.569842 23.2348 -0.569842 12.8734 5.79838 6.50513C12.1666 0.136908 22.5281 0.136908 28.8963 6.50513C31.9943 9.60307 33.5706 13.6468 33.6546 17.7157C33.9152 17.6947 34.1716 17.6737 34.4323 17.6653C34.3356 13.4156 32.6752 9.19954 29.4386 5.96289C22.7719 -0.712188 11.9186 -0.712188 5.25193 5.95868C-1.41894 12.6296 -1.41894 23.4786 5.25193 30.1495C8.48859 33.3862 12.7046 35.0465 16.9543 35.1432C16.9627 34.8784 16.9838 34.622 17.0048 34.3614Z" fill="#E67EBE"/>
<path d="M51.9357 39.6113C48.6907 39.8846 45.5213 41.2591 43.037 43.7433C40.5528 46.2276 39.1825 49.397 38.905 52.642C41.9988 51.9695 44.9412 50.4478 47.3413 48.0476C49.7457 45.6517 51.2632 42.7051 51.9357 39.6113Z" fill="#E67EBE"/>
</g>
<defs>
<clipPath id="clip0_53_4495">
<rect width="70" height="70" fill="white" transform="translate(0.25 0.956055)"/>
</clipPath>
</defs>
</svg>
