<svg width="182" height="172" viewBox="0 0 182 172" fill="none" xmlns="http://www.w3.org/2000/svg">
<mask id="path-1-outside-1_46_96" maskUnits="userSpaceOnUse" x="0.291748" y="0.276855" width="182" height="172" fill="black">
<rect fill="white" x="0.291748" y="0.276855" width="182" height="172"/>
<path fill-rule="evenodd" clip-rule="evenodd" d="M131.947 1.27707C128.518 1.27709 125.341 3.0808 123.584 6.02572L111.624 26.072C107.751 32.5631 112.428 40.7997 119.987 40.7997L160.909 40.7996C164.513 40.7996 167.823 38.8086 169.512 35.6241L180.143 15.5777C183.583 9.09178 178.882 1.27682 171.54 1.27686L131.947 1.27707ZM49.7507 37.3197C46.3214 37.3197 43.145 39.1234 41.3879 42.0683L29.4276 62.1146C25.5548 68.6057 30.2318 76.8424 37.7905 76.8423L78.7123 76.8423C82.3168 76.8423 85.6266 74.8512 87.3154 71.6667L97.947 51.6203C101.387 45.1344 96.6853 37.3194 89.3437 37.3195L49.7507 37.3197ZM14.6424 92.6274C16.3994 89.6825 19.5759 87.8788 23.0051 87.8788L62.5982 87.8786C69.9398 87.8785 74.6412 95.6935 71.2014 102.179L60.5699 122.226C58.881 125.41 55.5713 127.401 51.9667 127.401L11.0449 127.401C3.48625 127.401 -1.19074 119.165 2.68208 112.674L14.6424 92.6274ZM75.3981 131.477C71.9688 131.477 68.7923 133.281 67.0353 136.226L55.075 156.272C51.2022 162.763 55.8792 171 63.4378 171L104.36 171C107.964 171 111.274 169.009 112.963 165.824L123.594 145.778C127.034 139.292 122.333 131.477 114.991 131.477L75.3981 131.477Z"/>
</mask>
<path d="M123.584 6.02572L123.275 5.84127L123.584 6.02572ZM131.947 1.27707V1.63707V1.27707ZM111.624 26.072L111.315 25.8875L111.624 26.072ZM119.987 40.7997V41.1597V40.7997ZM160.909 40.7996V41.1596V40.7996ZM169.512 35.6241L169.83 35.7928L169.512 35.6241ZM180.143 15.5777L179.825 15.409L180.143 15.5777ZM171.54 1.27686V0.916855V1.27686ZM41.3879 42.0683L41.6971 42.2528L41.3879 42.0683ZM49.7507 37.3197V36.9597H49.7507L49.7507 37.3197ZM29.4276 62.1146L29.7368 62.2991L29.4276 62.1146ZM37.7905 76.8423V76.4823V76.8423ZM78.7123 76.8423V77.2023V76.8423ZM87.3154 71.6667L87.6335 71.8354L87.3154 71.6667ZM97.947 51.6203L97.6289 51.4516L97.947 51.6203ZM89.3437 37.3195V37.6795V37.3195ZM23.0051 87.8788L23.0051 87.5188L23.0051 87.8788ZM14.6424 92.6274L14.9515 92.8119L14.6424 92.6274ZM62.5982 87.8786V87.5186V87.8786ZM71.2014 102.179L70.8834 102.011L71.2014 102.179ZM60.5699 122.226L60.8879 122.394H60.8879L60.5699 122.226ZM51.9667 127.401V127.761V127.401ZM11.0449 127.401L11.0449 127.041L11.0449 127.401ZM2.68208 112.674L2.37293 112.489H2.37293L2.68208 112.674ZM67.0353 136.226L66.7261 136.042L67.0353 136.226ZM75.3981 131.477V131.837V131.477ZM55.075 156.272L55.3842 156.457L55.075 156.272ZM63.4378 171V170.64V171ZM104.36 171V170.64V171ZM112.963 165.824L113.281 165.993L112.963 165.824ZM123.594 145.778L123.912 145.947L123.594 145.778ZM114.991 131.477V131.837V131.477ZM123.894 6.21017C125.586 3.37412 128.645 1.63709 131.947 1.63707V0.917072C128.391 0.917091 125.097 2.78748 123.275 5.84127L123.894 6.21017ZM111.933 26.2564L123.894 6.21017L123.275 5.84127L111.315 25.8875L111.933 26.2564ZM119.987 40.4397C112.708 40.4397 108.204 32.5076 111.933 26.2564L111.315 25.8875C107.299 32.6186 112.149 41.1597 119.987 41.1597V40.4397ZM160.909 40.4396L119.987 40.4397V41.1597L160.909 41.1596V40.4396ZM169.194 35.4554C167.567 38.5222 164.38 40.4396 160.909 40.4396V41.1596C164.647 41.1596 168.079 39.0949 169.83 35.7928L169.194 35.4554ZM179.825 15.409L169.194 35.4554L169.83 35.7928L180.461 15.7464L179.825 15.409ZM171.54 1.63686C178.61 1.63682 183.138 9.16288 179.825 15.409L180.461 15.7464C184.028 9.02068 179.153 0.916814 171.54 0.916855V1.63686ZM131.947 1.63707L171.54 1.63686V0.916855L131.947 0.917072V1.63707ZM41.6971 42.2528C43.3892 39.4167 46.4482 37.6797 49.7507 37.6797L49.7507 36.9597C46.1947 36.9597 42.9008 38.8301 41.0788 41.8839L41.6971 42.2528ZM29.7368 62.2991L41.6971 42.2528L41.0788 41.8839L29.1185 61.9302L29.7368 62.2991ZM37.7905 76.4823C30.5112 76.4824 26.0071 68.5502 29.7368 62.2991L29.1185 61.9302C25.1025 68.6612 29.9524 77.2024 37.7905 77.2023V76.4823ZM78.7123 76.4823L37.7905 76.4823V77.2023L78.7123 77.2023V76.4823ZM86.9974 71.4981C85.371 74.5648 82.1836 76.4823 78.7123 76.4823V77.2023C82.4501 77.2023 85.8822 75.1376 87.6335 71.8354L86.9974 71.4981ZM97.6289 51.4516L86.9974 71.4981L87.6335 71.8354L98.265 51.789L97.6289 51.4516ZM89.3437 37.6795C96.4139 37.6794 100.942 45.2055 97.6289 51.4516L98.265 51.789C101.832 45.0633 96.9567 36.9594 89.3437 36.9595V37.6795ZM49.7507 37.6797L89.3437 37.6795V36.9595L49.7507 36.9597L49.7507 37.6797ZM23.0051 87.5188C19.4491 87.5188 16.1552 89.3892 14.3332 92.443L14.9515 92.8119C16.6436 89.9758 19.7027 88.2388 23.0051 88.2388L23.0051 87.5188ZM62.5982 87.5186L23.0051 87.5188L23.0051 88.2388L62.5982 88.2386L62.5982 87.5186ZM71.5194 102.348C75.0864 95.6224 70.2112 87.5185 62.5982 87.5186L62.5982 88.2386C69.6684 88.2385 74.196 95.7646 70.8834 102.011L71.5194 102.348ZM60.8879 122.394L71.5194 102.348L70.8834 102.011L60.2518 122.057L60.8879 122.394ZM51.9667 127.761C55.7045 127.761 59.1366 125.697 60.8879 122.394L60.2518 122.057C58.6254 125.124 55.438 127.041 51.9667 127.041V127.761ZM11.0449 127.761L51.9667 127.761V127.041L11.0449 127.041L11.0449 127.761ZM2.37293 112.489C-1.64307 119.22 3.20682 127.761 11.0449 127.761L11.0449 127.041C3.76567 127.041 -0.738419 119.109 2.99124 112.858L2.37293 112.489ZM14.3332 92.443L2.37293 112.489L2.99124 112.858L14.9515 92.8119L14.3332 92.443ZM67.3445 136.41C69.0365 133.574 72.0956 131.837 75.3981 131.837V131.117C71.842 131.117 68.5481 132.988 66.7261 136.042L67.3445 136.41ZM55.3842 156.457L67.3445 136.41L66.7261 136.042L54.7659 156.088L55.3842 156.457ZM63.4378 170.64C56.1586 170.64 51.6545 162.708 55.3842 156.457L54.7659 156.088C50.7498 162.819 55.5997 171.36 63.4378 171.36V170.64ZM104.36 170.64L63.4378 170.64V171.36L104.36 171.36V170.64ZM112.645 165.656C111.018 168.722 107.831 170.64 104.36 170.64V171.36C108.097 171.36 111.53 169.295 113.281 165.993L112.645 165.656ZM123.276 145.609L112.645 165.656L113.281 165.993L123.912 145.947L123.276 145.609ZM114.991 131.837C122.061 131.837 126.589 139.363 123.276 145.609L123.912 145.947C127.479 139.221 122.604 131.117 114.991 131.117V131.837ZM75.3981 131.837L114.991 131.837V131.117L75.3981 131.117V131.837Z" fill="url(#paint0_linear_46_96)" fill-opacity="0.7" mask="url(#path-1-outside-1_46_96)"/>
<defs>
<linearGradient id="paint0_linear_46_96" x1="91.2917" y1="1.27686" x2="91.2917" y2="171" gradientUnits="userSpaceOnUse">
<stop stop-color="#3A47E1"/>
<stop offset="1" stop-color="#31BDFE"/>
</linearGradient>
</defs>
</svg>
